<svg width="409" height="69" viewBox="0 0 409 69" fill="none" xmlns="http://www.w3.org/2000/svg">
<g clip-path="url(#clip0_39_274)">
<path d="M97.0204 43.0996C99.9371 47.6331 102.562 51.7084 105.187 55.7837C107.758 59.7701 110.336 63.7497 113.042 67.9413H93.6288C88.7449 60.3855 83.7931 52.7067 78.8007 44.98H72.3024V56.2213C72.3024 56.2213 72.2888 63.7155 72.2888 67.7908C69.3381 68.3105 66.5299 67.9891 63.7555 68.0438C60.9337 68.1054 58.1119 68.0575 55.4122 68.0575C55.2087 67.8797 55.1137 67.8114 55.0391 67.7225C54.9713 67.6404 54.8899 67.5378 54.8899 67.4421C54.8492 46.0262 54.8221 24.6035 54.7949 3.18754C54.7949 2.64052 54.8492 2.08666 54.8967 1.21143C55.9006 1.21143 56.7688 1.21143 57.6371 1.21143C65.6616 1.21143 73.6861 1.19775 81.7107 1.2251C87.2322 1.23878 92.713 1.82683 98.0243 3.35165C103.532 4.93118 108.118 7.83723 110.363 13.5126C110.817 14.6613 111.313 15.8579 111.428 17.0614C111.95 22.6 112.466 28.1523 109.99 33.4447C108.152 37.3627 105.099 39.8722 101.219 41.4928C99.9982 42.0056 98.7433 42.4432 97.0068 43.1133L97.0204 43.0996ZM72.4177 30.6139C73.6794 30.6139 74.568 30.6139 75.4633 30.6139C78.6175 30.6002 81.7921 30.7711 84.9259 30.5045C87.2254 30.3062 89.5792 29.9848 91.6888 28.7472C95.7587 26.3608 95.874 19.817 91.8448 17.417C89.6674 16.1246 87.2729 15.5708 84.7767 15.5229C81.3986 15.4545 78.0138 15.4545 74.6358 15.4614C73.8964 15.4614 73.1503 15.646 72.4245 15.7485V30.6139H72.4177Z" fill="white"/>
<path d="M241.36 13.607C237.195 16.8345 233.2 19.9251 229.211 23.009C221.519 14.0036 209.499 13.6822 201.848 21.0328C194.454 28.1373 193.823 38.5923 200.681 46.7429C207.159 54.4491 220.061 56.4388 229.069 46.1685C233.145 49.2455 237.249 52.343 241.339 55.4269C234.326 65.8887 219.979 71.3794 206.501 68.0015C190.967 64.1108 181.349 51.9122 180.447 36.2811C179.572 21.0328 188.254 7.48038 203.225 2.03751C216.418 -2.76261 232.637 1.26484 241.367 13.6002L241.36 13.607Z" fill="white"/>
<path d="M181.715 67.8721H118.055C128.575 45.2048 139.055 22.6128 149.413 0.294328C149.854 0.0823572 149.963 -0.0133717 150.058 0.000303856C150.139 0.0139794 150.227 0.137059 150.275 0.232788C150.634 0.937079 150.987 1.64137 151.333 2.35934C152.466 4.70469 153.633 7.04321 154.725 9.40908C163.685 28.8079 172.639 48.2135 181.715 67.8789V67.8721ZM149.881 35.3516C146.707 42.2031 143.885 48.2955 140.921 54.7025H158.89C155.925 48.3434 153.076 42.2167 149.881 35.3516Z" fill="white"/>
<path d="M16.8834 15.454C16.8834 20.4455 16.8767 24.8764 16.9038 29.3073C16.9038 29.6082 17.1955 29.9022 17.4329 30.3535C19.9088 30.9552 22.4999 30.5244 25.0572 30.6065C27.5399 30.6817 30.0293 30.6202 32.5119 30.6202H40.333V44.8496C32.573 44.9111 24.8469 44.8359 16.992 44.8906V67.5783C14.5772 68.1664 4.88396 68.3031 0.00683594 67.804V1.41602H47.0009V15.1668C44.7285 15.8027 42.2594 15.3514 39.8378 15.4335C37.2398 15.5155 34.6419 15.454 32.0439 15.454H16.8834Z" fill="white"/>
<path d="M280.662 67.9066H263.718V15.454H246.292V1.33398H297.898V15.454H280.669C280.669 15.454 280.696 22.6063 280.669 26.0936C280.642 29.5125 280.669 32.9313 280.669 36.3434V67.9066H280.662Z" fill="white"/>
<path d="M364.869 1.32617H381.711V53.7377H409.007V67.8988H364.875V1.32617H364.869Z" fill="white"/>
<path d="M356.769 67.8721H293.109C303.63 45.2048 314.11 22.6128 324.468 0.294328C324.909 0.0823572 325.017 -0.0133717 325.112 0.000303856C325.193 0.0139794 325.282 0.137059 325.329 0.232788C325.689 0.937079 326.041 1.64137 326.387 2.35934C327.52 4.70469 328.687 7.04321 329.779 9.40908C338.74 28.8079 347.693 48.2135 356.769 67.8789V67.8721ZM324.936 35.3516C321.761 42.2031 318.939 48.2955 315.975 54.7025H333.944C330.98 48.3434 328.131 42.2167 324.936 35.3516V35.3516Z" fill="white"/>
</g>
<defs>
<clipPath id="clip0_39_274">
<rect width="409" height="69" fill="white"/>
</clipPath>
</defs>
</svg>
