<?xml version="1.0" encoding="utf-8"?>
<!-- Generator: Adobe Illustrator 26.3.1, SVG Export Plug-In . SVG Version: 6.00 Build 0)  -->
<svg version="1.1" id="Layer_1" xmlns="http://www.w3.org/2000/svg" xmlns:xlink="http://www.w3.org/1999/xlink" x="0px" y="0px"
	 viewBox="0 0 1920 1080" style="enable-background:new 0 0 1920 1080;" xml:space="preserve">
<g>
	<rect x="787.85" y="497.12" width="16.92" height="87.94"/>
	<path d="M893.45,521.04c-8.4,0-16.13,3.5-20.73,10.79c-3.43-7.11-10.3-10.79-19.19-10.79c-7.54,0-14.53,3.31-18.77,10.12v-8.89
		h-16.31v62.79h16.31v-34.89c0-8.77,5.95-15.33,13.49-15.33h0.98c6.68,0,9.81,4.23,9.81,12.57v37.65h16.31v-34.89
		c0-8.77,5.89-15.33,13.43-15.33h0.98c6.68,0,9.69,4.23,9.69,12.57v37.65h16.31v-39.55c0-7.42-1.78-13.37-5.33-17.84
		C906.82,523.25,901.18,521.04,893.45,521.04z"/>
	<path d="M1001.94,521.04c-8.4,0-16.13,3.5-20.73,10.79c-3.43-7.11-10.3-10.79-19.19-10.79c-7.54,0-14.53,3.31-18.76,10.12v-8.89
		h-16.31v62.79h16.31v-34.89c0-8.77,5.95-15.33,13.49-15.33h0.98c6.68,0,9.81,4.23,9.81,12.57v37.65h16.31v-34.89
		c0-8.77,5.89-15.33,13.43-15.33h0.98c6.68,0,9.69,4.23,9.69,12.57v37.65h16.31v-39.55c0-7.42-1.78-13.37-5.34-17.84
		C1015.3,523.25,1009.66,521.04,1001.94,521.04z"/>
	<path d="M1125.51,564.33v-28.88h14.04v-13.18h-14.04v-20.36h-16.31v20.36h-18.52h-15.81h-0.5v34.89c0,8.77-5.83,15.94-12.94,15.94
		h-0.98c-5.95,0-9.32-4.41-9.32-12.51v-38.33h-16.31v40.17c0,7.3,1.78,13.06,5.33,17.35c3.5,4.35,8.83,6.5,15.88,6.5
		c7.79,0,14.47-3.99,18.34-10.42v9.2h16.31v-49.61h18.52v33.3c0,10.61,5.7,16.31,16.31,16.31h15.94v-13.8h-9.01
		C1126.67,571.26,1125.51,570.1,1125.51,564.33z"/>
	<path d="M1199.65,543.61c0-14.47-10.55-22.57-26.37-22.57c-15.45,0-25.69,8.77-27.04,20.67h16.37c0.37-3.8,4.23-7.48,10.12-7.48
		h1.04c6.01,0,10.06,4.35,10.06,10v1.53l-15.82,1.41c-6.75,0.55-12.26,2.51-16.56,5.95c-4.29,3.43-6.44,8.34-6.44,14.72
		c-0.18,11.04,9.32,18.58,20.6,18.46c8.03,0,14.66-3.43,18.58-8.89c0.12,3.31,0.37,5.89,0.74,7.67h15.33
		c-0.43-2.94-0.61-7.54-0.61-13.8V543.61z M1183.83,559.43c0,7.91-6.56,13.68-13.98,13.68h-0.98c-4.48,0-7.79-2.51-7.79-6.38
		c0-2.39,0.92-4.17,2.76-5.46c1.84-1.29,3.99-2.02,6.38-2.21l13.61-1.41V559.43z"/>
	<path d="M1245.34,521.04c-8.4,0-15.39,4.78-18.09,9.38v-33.3h-16.31v87.94h16.31v-8.16c2.7,4.6,9.69,9.38,18.09,9.38
		c17.6,0.31,28.09-15.45,27.9-32.62C1273.43,536.49,1262.94,520.73,1245.34,521.04z M1242.58,573.1h-0.98
		c-7.48,0.18-14.47-7.91-14.35-19.44c-0.12-11.53,6.87-19.62,14.35-19.44h0.98c8.22,0,14.35,7.54,14.35,19.32
		C1256.93,565.31,1250.74,573.1,1242.58,573.1z"/>
	<rect x="1281.4" y="497.12" width="16.31" height="87.94"/>
	<path d="M1335.92,521.04c-18.4-0.25-30.05,13.86-29.86,32.62c-0.31,20.05,14.1,32.87,29.86,32.62c15.39,0,25.33-8.59,28.39-21.09
		h-16.19c-1.17,4.6-5.15,7.91-11.04,7.91h-1.04c-6.81,0-13.55-5.89-14.17-14.29h42.44c0.18-2.7,0.25-4.66,0.25-5.89
		C1364.74,534.59,1354.26,520.86,1335.92,521.04z M1321.88,546.24c0.37-7.42,6.07-12.02,12.94-12.02h0.98
		c6.87,0,12.57,4.6,12.94,12.02H1321.88z"/>
</g>
<path d="M623.62,433.2c-59.26,0-107.3,48.04-107.3,107.3s48.04,107.3,107.3,107.3s107.3-48.04,107.3-107.3
	S682.88,433.2,623.62,433.2z M618.97,476.56c2.98-1.46,6.12-1.36,9.01,0.28c10.02,5.71,20.01,11.47,29.95,17.29
	c3.2,1.88,4.84,4.89,4.85,8.59c0.06,12.97,0.04,25.93,0,38.9c0,0.48-0.31,1.18-0.7,1.41c-3.85,2.3-7.75,4.51-11.98,6.95
	c0-0.85,0-1.44,0-2.04c0-13.34-0.04-26.67,0.03-40.01c0.01-2.56-0.87-4.21-3.14-5.5c-11.63-6.61-23.2-13.34-34.79-20.03
	c-0.5-0.29-0.99-0.6-1.75-1.06C613.45,479.65,616.13,477.95,618.97,476.56z M616.84,609.25c-0.65-0.33-1.13-0.56-1.6-0.83
	c-15.35-8.85-30.68-17.76-46.08-26.54c-4.32-2.46-6.29-5.97-6.24-10.9c0.09-10.48,0.06-20.96,0.01-31.45
	c-0.02-4.73,1.9-8.16,6.06-10.52c10.81-6.15,21.56-12.39,32.31-18.64c0.93-0.54,1.61-0.63,2.58-0.05c3.71,2.23,7.49,4.36,11.44,6.64
	c-0.75,0.45-1.32,0.79-1.9,1.13c-11.64,6.72-23.26,13.46-34.93,20.14c-1.91,1.09-2.8,2.51-2.78,4.73c0.06,8.26,0.07,16.52,0,24.78
	c-0.02,2.28,0.89,3.73,2.85,4.85c12.31,7.04,24.57,14.16,36.87,21.22c1.04,0.6,1.48,1.22,1.46,2.46
	C616.78,600.49,616.84,604.72,616.84,609.25z M616.84,585.59c-1.07-0.61-1.84-1.04-2.61-1.49c-9.76-5.63-19.51-11.28-29.29-16.87
	c-1.06-0.6-1.45-1.25-1.44-2.48c0.07-6.35,0.04-12.7,0.02-19.05c0-0.86,0.13-1.45,0.98-1.93c3.6-2.01,7.16-4.11,10.73-6.16
	c0.26-0.15,0.54-0.26,1.01-0.49c0,2.51,0,4.82,0,7.13c0,3.86,0.06,7.73-0.02,11.59c-0.05,2.2,0.8,3.69,2.72,4.77
	c5.53,3.12,10.99,6.36,16.52,9.47c1.09,0.61,1.42,1.29,1.4,2.49C616.79,576.8,616.84,581.03,616.84,585.59z M605.57,502.24
	c-2.07-1.22-3.84-1.21-5.91,0c-11.6,6.78-23.25,13.47-34.89,20.19c-0.49,0.28-1,0.55-1.87,1.02c0.31-4.42-0.64-8.59,0.87-12.63
	c0.82-2.21,2.36-3.87,4.4-5.05c9.71-5.61,19.41-11.23,29.14-16.81c3.55-2.04,7.17-1.99,10.72,0.06
	c11.05,6.36,22.09,12.74,33.11,19.14c0.47,0.27,1.06,0.88,1.06,1.34c0.08,4.54,0.05,9.09,0.05,13.96
	c-4.01-2.31-7.71-4.45-11.41-6.59C622.41,512,613.96,507.17,605.57,502.24z M683.22,573.63c-0.29,3.57-2.38,6.1-5.47,7.88
	c-11.83,6.8-23.65,13.64-35.47,20.46c-3.71,2.14-7.42,4.28-11.14,6.42c-0.45,0.26-0.91,0.48-1.52,0.8
	c-0.04-0.62-0.09-1.07-0.09-1.52c-0.01-3.92,0.02-7.83-0.02-11.75c-0.01-0.89,0.21-1.43,1.03-1.9
	c17.24-9.92,34.47-19.87,51.69-29.81c0.26-0.15,0.55-0.27,1.04-0.5C683.27,567.19,683.48,570.43,683.22,573.63z M683.31,548.95
	c-0.03,4.06-2.22,6.91-5.69,8.91c-13.48,7.75-26.95,15.54-40.42,23.32c-2.46,1.42-4.93,2.83-7.57,4.35
	c-0.04-0.67-0.09-1.11-0.09-1.56c-0.01-3.86,0.04-7.73-0.03-11.59c-0.02-1.1,0.35-1.68,1.3-2.23c12.25-7.03,24.46-14.14,36.73-21.13
	c2.18-1.24,3.14-2.77,3.12-5.33c-0.09-13.34-0.04-26.68-0.04-40.02c0-0.63,0-1.27,0-2.33c3.2,1.93,6.2,3.52,8.94,5.46
	c2.5,1.77,3.76,4.45,3.77,7.54C683.36,525.87,683.39,537.41,683.31,548.95z"/>
</svg>
