<?xml version="1.0" encoding="utf-8"?>
<!-- Generator: Adobe Illustrator 26.3.1, SVG Export Plug-In . SVG Version: 6.00 Build 0)  -->
<svg version="1.1" id="Layer_1" xmlns="http://www.w3.org/2000/svg" xmlns:xlink="http://www.w3.org/1999/xlink" x="0px" y="0px"
	 viewBox="0 0 1920 1080" style="enable-background:new 0 0 1920 1080;" xml:space="preserve">
<style type="text/css">
	.st0{fill:#FFFFFF;}
</style>
<g>
	<rect x="671.5" y="670.1" class="st0" width="16.9" height="87.9"/>
	<path class="st0" d="M777.2,694c-8.4,0-16.1,3.5-20.7,10.8c-3.4-7.1-10.3-10.8-19.2-10.8c-7.5,0-14.5,3.3-18.8,10.1v-8.9h-16.3V758
		h16.3v-34.9c0-8.8,6-15.3,13.5-15.3h1c6.7,0,9.8,4.2,9.8,12.6V758H759v-34.9c0-8.8,5.9-15.3,13.4-15.3h1c6.7,0,9.7,4.2,9.7,12.6
		V758h16.3v-39.5c0-7.4-1.8-13.4-5.3-17.8C790.5,696.2,784.9,694,777.2,694z"/>
	<path class="st0" d="M885.6,694c-8.4,0-16.1,3.5-20.7,10.8c-3.4-7.1-10.3-10.8-19.2-10.8c-7.5,0-14.5,3.3-18.8,10.1v-8.9h-16.3V758
		H827v-34.9c0-8.8,6-15.3,13.5-15.3h1c6.7,0,9.8,4.2,9.8,12.6V758h16.3v-34.9c0-8.8,5.9-15.3,13.4-15.3h1c6.7,0,9.7,4.2,9.7,12.6
		V758H908v-39.5c0-7.4-1.8-13.4-5.3-17.8C899,696.2,893.4,694,885.6,694z"/>
	<path class="st0" d="M1009.2,737.3v-28.9h14v-13.2h-14v-20.4h-16.3v20.4h-18.5h-15.8h-0.5v34.9c0,8.8-5.8,15.9-12.9,15.9h-1
		c-6,0-9.3-4.4-9.3-12.5v-38.3h-16.3v40.2c0,7.3,1.8,13.1,5.3,17.3c3.5,4.3,8.8,6.5,15.9,6.5c7.8,0,14.5-4,18.3-10.4v9.2h16.3v-49.6
		h18.5v33.3c0,10.6,5.7,16.3,16.3,16.3h15.9v-13.8h-9C1010.4,744.2,1009.2,743,1009.2,737.3z"/>
	<path class="st0" d="M1083.3,716.5c0-14.5-10.6-22.6-26.4-22.6c-15.4,0-25.7,8.8-27,20.7h16.4c0.4-3.8,4.2-7.5,10.1-7.5h1
		c6,0,10.1,4.3,10.1,10v1.5l-15.8,1.4c-6.8,0.5-12.3,2.5-16.6,6c-4.3,3.4-6.4,8.3-6.4,14.7c-0.2,11,9.3,18.6,20.6,18.5
		c8,0,14.7-3.4,18.6-8.9c0.1,3.3,0.4,5.9,0.7,7.7h15.3c-0.4-2.9-0.6-7.5-0.6-13.8V716.5z M1067.5,732.4c0,7.9-6.6,13.7-14,13.7h-1
		c-4.5,0-7.8-2.5-7.8-6.4c0-2.4,0.9-4.2,2.8-5.5c1.8-1.3,4-2,6.4-2.2l13.6-1.4V732.4z"/>
	<path class="st0" d="M1129,694c-8.4,0-15.4,4.8-18.1,9.4v-33.3h-16.3V758h16.3v-8.2c2.7,4.6,9.7,9.4,18.1,9.4
		c17.6,0.3,28.1-15.5,27.9-32.6C1157.1,709.4,1146.6,693.7,1129,694z M1126.3,746h-1c-7.5,0.2-14.5-7.9-14.3-19.4
		c-0.1-11.5,6.9-19.6,14.3-19.4h1c8.2,0,14.3,7.5,14.3,19.3C1140.6,738.2,1134.4,746,1126.3,746z"/>
	<rect x="1165.1" y="670.1" class="st0" width="16.3" height="87.9"/>
	<path class="st0" d="M1219.6,694c-18.4-0.2-30.1,13.9-29.9,32.6c-0.3,20,14.1,32.9,29.9,32.6c15.4,0,25.3-8.6,28.4-21.1h-16.2
		c-1.2,4.6-5.2,7.9-11,7.9h-1c-6.8,0-13.6-5.9-14.2-14.3h42.4c0.2-2.7,0.2-4.7,0.2-5.9C1248.4,707.5,1238,693.8,1219.6,694z
		 M1205.6,719.2c0.4-7.4,6.1-12,12.9-12h1c6.9,0,12.6,4.6,12.9,12H1205.6z"/>
</g>
<path class="st0" d="M959.5,321.5c-77.3,0-140,62.7-140,140s62.7,140,140,140s140-62.7,140-140S1036.8,321.5,959.5,321.5z
	 M953.4,378c3.9-1.9,8-1.8,11.8,0.4c13.1,7.5,26.1,15,39.1,22.6c4.2,2.5,6.3,6.4,6.3,11.2c0.1,16.9,0,33.8,0,50.8
	c0,0.6-0.4,1.5-0.9,1.8c-5,3-10.1,5.9-15.6,9.1c0-1.1,0-1.9,0-2.7c0-17.4,0-34.8,0-52.2c0-3.3-1.1-5.5-4.1-7.2
	c-15.2-8.6-30.3-17.4-45.4-26.1c-0.7-0.4-1.3-0.8-2.3-1.4C946.2,382.1,949.7,379.9,953.4,378z M950.7,551.2
	c-0.8-0.4-1.5-0.7-2.1-1.1c-20-11.5-40-23.2-60.1-34.6c-5.6-3.2-8.2-7.8-8.2-14.2c0.1-13.7,0.1-27.4,0-41c0-6.2,2.5-10.6,7.9-13.7
	c14.1-8,28.1-16.2,42.2-24.3c1.2-0.7,2.1-0.8,3.4-0.1c4.8,2.9,9.8,5.7,14.9,8.7c-1,0.6-1.7,1-2.5,1.5c-15.2,8.8-30.3,17.6-45.6,26.3
	c-2.5,1.4-3.7,3.3-3.6,6.2c0.1,10.8,0.1,21.5,0,32.3c0,3,1.2,4.9,3.7,6.3c16.1,9.2,32.1,18.5,48.1,27.7c1.4,0.8,1.9,1.6,1.9,3.2
	C950.6,539.7,950.7,545.3,950.7,551.2z M950.7,520.3c-1.4-0.8-2.4-1.4-3.4-1.9c-12.7-7.4-25.5-14.7-38.2-22
	c-1.4-0.8-1.9-1.6-1.9-3.2c0.1-8.3,0.1-16.6,0-24.9c0-1.1,0.2-1.9,1.3-2.5c4.7-2.6,9.3-5.4,14-8c0.3-0.2,0.7-0.3,1.3-0.6
	c0,3.3,0,6.3,0,9.3c0,5,0.1,10.1,0,15.1c-0.1,2.9,1,4.8,3.5,6.2c7.2,4.1,14.3,8.3,21.5,12.4c1.4,0.8,1.8,1.7,1.8,3.2
	C950.6,508.8,950.7,514.3,950.7,520.3z M936,411.5c-2.7-1.6-5-1.6-7.7,0c-15.1,8.8-30.3,17.6-45.5,26.3c-0.6,0.4-1.3,0.7-2.4,1.3
	c0.4-5.8-0.8-11.2,1.1-16.5c1.1-2.9,3.1-5,5.7-6.6c12.7-7.3,25.3-14.7,38-21.9c4.6-2.7,9.4-2.6,14,0.1c14.4,8.3,28.8,16.6,43.2,25
	c0.6,0.4,1.4,1.1,1.4,1.7c0.1,5.9,0.1,11.9,0.1,18.2c-5.2-3-10.1-5.8-14.9-8.6C957.9,424.3,946.9,418,936,411.5z M1037.3,504.7
	c-0.4,4.7-3.1,8-7.1,10.3c-15.4,8.9-30.8,17.8-46.3,26.7c-4.8,2.8-9.7,5.6-14.5,8.4c-0.6,0.3-1.2,0.6-2,1c0-0.8-0.1-1.4-0.1-2
	c0-5.1,0-10.2,0-15.3c0-1.2,0.3-1.9,1.3-2.5c22.5-12.9,45-25.9,67.5-38.9c0.3-0.2,0.7-0.4,1.3-0.7
	C1037.3,496.3,1037.6,500.5,1037.3,504.7z M1037.4,472.5c0,5.3-2.9,9-7.4,11.6c-17.6,10.1-35.2,20.3-52.7,30.4
	c-3.2,1.8-6.4,3.7-9.9,5.7c0-0.9-0.1-1.5-0.1-2c0-5,0-10.1,0-15.1c0-1.4,0.5-2.2,1.7-2.9c16-9.2,31.9-18.5,47.9-27.6
	c2.8-1.6,4.1-3.6,4.1-7c-0.1-17.4-0.1-34.8-0.1-52.2c0-0.8,0-1.6,0-3c4.2,2.5,8.1,4.6,11.7,7.1c3.3,2.3,4.9,5.8,4.9,9.8
	C1037.4,442.4,1037.5,457.4,1037.4,472.5z"/>
</svg>
