<svg xmlns="http://www.w3.org/2000/svg" xmlns:xlink="http://www.w3.org/1999/xlink" version="1.1" id="Layer_1" x="0px" y="0px" style="enable-background:new 0 0 1920 1080;" xml:space="preserve" viewBox="516.3 433.2 848.2 214.6">
<style type="text/css">
	.st0{fill:#FFFFFF;}
</style>
<g>
	<rect x="787.8" y="497.1" class="st0" width="16.9" height="87.9"/>
	<path class="st0" d="M893.5,521c-8.4,0-16.1,3.5-20.7,10.8c-3.4-7.1-10.3-10.8-19.2-10.8c-7.5,0-14.5,3.3-18.8,10.1v-8.9h-16.3   v62.8h16.3v-34.9c0-8.8,6-15.3,13.5-15.3h1c6.7,0,9.8,4.2,9.8,12.6v37.7h16.3v-34.9c0-8.8,5.9-15.3,13.4-15.3h1   c6.7,0,9.7,4.2,9.7,12.6v37.7h16.3v-39.5c0-7.4-1.8-13.4-5.3-17.8C906.8,523.2,901.2,521,893.5,521z"/>
	<path class="st0" d="M1001.9,521c-8.4,0-16.1,3.5-20.7,10.8c-3.4-7.1-10.3-10.8-19.2-10.8c-7.5,0-14.5,3.3-18.8,10.1v-8.9H927v62.8   h16.3v-34.9c0-8.8,6-15.3,13.5-15.3h1c6.7,0,9.8,4.2,9.8,12.6v37.7h16.3v-34.9c0-8.8,5.9-15.3,13.4-15.3h1c6.7,0,9.7,4.2,9.7,12.6   v37.7h16.3v-39.5c0-7.4-1.8-13.4-5.3-17.8C1015.3,523.2,1009.7,521,1001.9,521z"/>
	<path class="st0" d="M1125.5,564.3v-28.9h14v-13.2h-14v-20.4h-16.3v20.4h-18.5h-15.8h-0.5v34.9c0,8.8-5.8,15.9-12.9,15.9h-1   c-5.9,0-9.3-4.4-9.3-12.5v-38.3h-16.3v40.2c0,7.3,1.8,13.1,5.3,17.3c3.5,4.3,8.8,6.5,15.9,6.5c7.8,0,14.5-4,18.3-10.4v9.2h16.3   v-49.6h18.5v33.3c0,10.6,5.7,16.3,16.3,16.3h15.9v-13.8h-9C1126.7,571.3,1125.5,570.1,1125.5,564.3z"/>
	<path class="st0" d="M1199.7,543.6c0-14.5-10.6-22.6-26.4-22.6c-15.4,0-25.7,8.8-27,20.7h16.4c0.4-3.8,4.2-7.5,10.1-7.5h1   c6,0,10.1,4.3,10.1,10v1.5l-15.8,1.4c-6.8,0.5-12.3,2.5-16.6,6c-4.3,3.4-6.4,8.3-6.4,14.7c-0.2,11,9.3,18.6,20.6,18.5   c8,0,14.7-3.4,18.6-8.9c0.1,3.3,0.4,5.9,0.7,7.7h15.3c-0.4-2.9-0.6-7.5-0.6-13.8V543.6z M1183.8,559.4c0,7.9-6.6,13.7-14,13.7h-1   c-4.5,0-7.8-2.5-7.8-6.4c0-2.4,0.9-4.2,2.8-5.5c1.8-1.3,4-2,6.4-2.2l13.6-1.4V559.4z"/>
	<path class="st0" d="M1245.3,521c-8.4,0-15.4,4.8-18.1,9.4v-33.3h-16.3v87.9h16.3v-8.2c2.7,4.6,9.7,9.4,18.1,9.4   c17.6,0.3,28.1-15.5,27.9-32.6C1273.4,536.5,1262.9,520.7,1245.3,521z M1242.6,573.1h-1c-7.5,0.2-14.5-7.9-14.3-19.4   c-0.1-11.5,6.9-19.6,14.3-19.4h1c8.2,0,14.3,7.5,14.3,19.3C1256.9,565.3,1250.7,573.1,1242.6,573.1z"/>
	<rect x="1281.4" y="497.1" class="st0" width="16.3" height="87.9"/>
	<path class="st0" d="M1335.9,521c-18.4-0.2-30.1,13.9-29.9,32.6c-0.3,20,14.1,32.9,29.9,32.6c15.4,0,25.3-8.6,28.4-21.1h-16.2   c-1.2,4.6-5.2,7.9-11,7.9h-1c-6.8,0-13.6-5.9-14.2-14.3h42.4c0.2-2.7,0.2-4.7,0.2-5.9C1364.7,534.6,1354.3,520.9,1335.9,521z    M1321.9,546.2c0.4-7.4,6.1-12,12.9-12h1c6.9,0,12.6,4.6,12.9,12H1321.9z"/>
</g>
<path class="st0" d="M623.6,433.2c-59.3,0-107.3,48-107.3,107.3s48,107.3,107.3,107.3s107.3-48,107.3-107.3S682.9,433.2,623.6,433.2  z M619,476.6c3-1.5,6.1-1.4,9,0.3c10,5.7,20,11.5,30,17.3c3.2,1.9,4.8,4.9,4.8,8.6c0.1,13,0,25.9,0,38.9c0,0.5-0.3,1.2-0.7,1.4  c-3.8,2.3-7.8,4.5-12,7c0-0.8,0-1.4,0-2c0-13.3,0-26.7,0-40c0-2.6-0.9-4.2-3.1-5.5c-11.6-6.6-23.2-13.3-34.8-20  c-0.5-0.3-1-0.6-1.8-1.1C613.5,479.6,616.1,478,619,476.6z M616.8,609.2c-0.7-0.3-1.1-0.6-1.6-0.8c-15.3-8.8-30.7-17.8-46.1-26.5  c-4.3-2.5-6.3-6-6.2-10.9c0.1-10.5,0.1-21,0-31.5c0-4.7,1.9-8.2,6.1-10.5c10.8-6.2,21.6-12.4,32.3-18.6c0.9-0.5,1.6-0.6,2.6,0  c3.7,2.2,7.5,4.4,11.4,6.6c-0.8,0.5-1.3,0.8-1.9,1.1c-11.6,6.7-23.3,13.5-34.9,20.1c-1.9,1.1-2.8,2.5-2.8,4.7  c0.1,8.3,0.1,16.5,0,24.8c0,2.3,0.9,3.7,2.8,4.8c12.3,7,24.6,14.2,36.9,21.2c1,0.6,1.5,1.2,1.5,2.5  C616.8,600.5,616.8,604.7,616.8,609.2z M616.8,585.6c-1.1-0.6-1.8-1-2.6-1.5c-9.8-5.6-19.5-11.3-29.3-16.9c-1.1-0.6-1.5-1.2-1.4-2.5  c0.1-6.3,0-12.7,0-19c0-0.9,0.1-1.5,1-1.9c3.6-2,7.2-4.1,10.7-6.2c0.3-0.2,0.5-0.3,1-0.5c0,2.5,0,4.8,0,7.1c0,3.9,0.1,7.7,0,11.6  c0,2.2,0.8,3.7,2.7,4.8c5.5,3.1,11,6.4,16.5,9.5c1.1,0.6,1.4,1.3,1.4,2.5C616.8,576.8,616.8,581,616.8,585.6z M605.6,502.2  c-2.1-1.2-3.8-1.2-5.9,0c-11.6,6.8-23.2,13.5-34.9,20.2c-0.5,0.3-1,0.5-1.9,1c0.3-4.4-0.6-8.6,0.9-12.6c0.8-2.2,2.4-3.9,4.4-5  c9.7-5.6,19.4-11.2,29.1-16.8c3.5-2,7.2-2,10.7,0.1c11,6.4,22.1,12.7,33.1,19.1c0.5,0.3,1.1,0.9,1.1,1.3c0.1,4.5,0,9.1,0,14  c-4-2.3-7.7-4.5-11.4-6.6C622.4,512,614,507.2,605.6,502.2z M683.2,573.6c-0.3,3.6-2.4,6.1-5.5,7.9c-11.8,6.8-23.7,13.6-35.5,20.5  c-3.7,2.1-7.4,4.3-11.1,6.4c-0.5,0.3-0.9,0.5-1.5,0.8c0-0.6-0.1-1.1-0.1-1.5c0-3.9,0-7.8,0-11.8c0-0.9,0.2-1.4,1-1.9  c17.2-9.9,34.5-19.9,51.7-29.8c0.3-0.2,0.5-0.3,1-0.5C683.3,567.2,683.5,570.4,683.2,573.6z M683.3,549c0,4.1-2.2,6.9-5.7,8.9  c-13.5,7.8-27,15.5-40.4,23.3c-2.5,1.4-4.9,2.8-7.6,4.3c0-0.7-0.1-1.1-0.1-1.6c0-3.9,0-7.7,0-11.6c0-1.1,0.3-1.7,1.3-2.2  c12.2-7,24.5-14.1,36.7-21.1c2.2-1.2,3.1-2.8,3.1-5.3c-0.1-13.3,0-26.7,0-40c0-0.6,0-1.3,0-2.3c3.2,1.9,6.2,3.5,8.9,5.5  c2.5,1.8,3.8,4.5,3.8,7.5C683.4,525.9,683.4,537.4,683.3,549z"/>
</svg>