<svg width="240" height="210" viewBox="0 0 240 210" fill="none" xmlns="http://www.w3.org/2000/svg"><path d="m236.582 165.57-38.75 41.567A8.992 8.992 0 0 1 191.25 210H7.5a4.498 4.498 0 0 1-4.435-5.263 4.5 4.5 0 0 1 1.145-2.307l38.75-41.568A8.993 8.993 0 0 1 49.542 158h183.75a4.499 4.499 0 0 1 3.29 7.57Zm-38.75-83.707A9 9 0 0 0 191.25 79H7.5a4.5 4.5 0 0 0-3.29 7.57l38.75 41.568A8.993 8.993 0 0 0 49.542 131h183.75a4.5 4.5 0 0 0 3.29-7.562l-38.75-41.576ZM7.512 52h183.75a8.999 8.999 0 0 0 6.583-2.862l38.75-41.568a4.5 4.5 0 0 0-3.29-7.57H49.555a9 9 0 0 0-6.583 2.863L4.222 44.43A4.5 4.5 0 0 0 7.5 52h.012Z" fill="url(#a)"/><defs><linearGradient id="a" x1="-11.57" y1="249.892" x2="262.832" y2="-51.388" gradientUnits="userSpaceOnUse"><stop offset=".12" stop-color="#E5304F"/><stop offset=".466" stop-color="#FF8A4D"/><stop offset=".876" stop-color="#F2FF00"/></linearGradient></defs></svg>